<svg version="1.1" xmlns="http://www.w3.org/2000/svg" xmlns:xlink="http://www.w3.org/1999/xlink" width="49" height="49" viewBox="0 0 49 49">
<path id="Cloud" d="M45.733,15.438 C45.733,15.438 45.733,15.438 45.733,17.967 C45.733,18.457 45.407,18.783 44.917,18.783 C44.427,18.783 44.100,18.457 44.100,17.967 C44.100,17.967 44.100,17.967 44.100,15.438 C43.136,15.249 42.303,14.729 41.719,13.997 C41.719,13.997 41.719,13.997 39.935,15.027 C39.772,15.027 39.608,15.108 39.527,15.108 C39.200,15.108 38.955,14.945 38.792,14.700 C38.547,14.292 38.710,13.802 39.118,13.557 C39.118,13.557 39.118,13.557 40.967,12.490 C40.880,12.154 40.833,11.800 40.833,11.433 C40.833,10.801 40.971,10.206 41.219,9.676 C41.219,9.676 38.302,8.493 38.302,8.493 C37.893,8.330 37.648,7.840 37.893,7.432 C38.057,7.023 38.547,6.778 38.955,7.023 C38.955,7.023 38.955,7.023 41.977,8.248 C42.054,8.279 42.125,8.322 42.189,8.374 C42.907,7.735 43.859,7.350 44.917,7.350 C47.203,7.350 49.000,9.147 49.000,11.433 C49.000,13.440 47.617,15.068 45.733,15.438 zM44.917,8.983 C43.528,8.983 42.467,10.045 42.467,11.433 C42.467,12.822 43.528,13.883 44.917,13.883 C46.305,13.883 47.367,12.822 47.367,11.433 C47.367,10.045 46.305,8.983 44.917,8.983 zM37.077,16.578 C37.077,16.578 37.077,16.578 34.788,17.841 C35.181,18.745 35.435,19.722 35.525,20.743 C38.138,21.560 39.935,24.092 39.935,27.113 C39.969,28.615 39.517,29.974 38.724,31.047 C38.724,31.047 38.724,31.047 39.363,31.687 C39.690,32.013 39.690,32.503 39.363,32.830 C39.200,32.993 38.955,33.075 38.792,33.075 C38.547,33.075 38.383,32.993 38.220,32.830 C38.220,32.830 38.220,32.830 37.596,32.206 C36.564,33.011 35.256,33.483 33.810,33.483 C33.810,33.483 15.680,33.483 15.680,33.483 C14.106,33.483 12.653,32.898 11.505,31.922 C11.427,31.932 11.348,31.932 11.270,31.932 C11.025,31.932 10.780,31.768 10.616,31.605 C10.477,31.373 10.444,31.115 10.515,30.890 C9.560,29.663 8.983,28.091 8.983,26.378 C8.983,23.847 10.290,21.560 12.332,20.335 C12.332,20.317 12.333,20.300 12.333,20.283 C12.332,20.273 12.332,20.263 12.332,20.253 C12.332,19.248 12.616,18.333 13.117,17.582 C13.117,17.582 13.117,17.582 11.760,16.742 C11.352,16.497 11.270,16.007 11.515,15.598 C11.760,15.190 12.250,15.108 12.658,15.353 C12.658,15.353 12.658,15.353 14.306,16.373 C15.089,15.831 16.063,15.517 17.150,15.517 C17.714,15.517 18.251,15.606 18.749,15.769 C18.930,15.811 19.107,15.863 19.273,15.925 C20.988,13.720 23.765,12.332 26.542,12.332 C29.645,12.332 32.362,13.944 33.982,16.365 C33.982,16.365 33.982,16.365 36.260,15.108 C36.668,14.863 37.158,15.027 37.403,15.435 C37.648,15.843 37.485,16.333 37.077,16.578 zM33.973,21.887 C33.973,21.887 33.973,21.887 33.973,21.233 C33.892,17.150 30.625,13.802 26.542,13.802 C24.269,13.802 21.927,14.926 20.492,16.783 C21.458,17.669 22.050,18.952 22.050,20.417 C22.050,20.907 21.723,21.233 21.233,21.233 C20.743,21.233 20.417,20.907 20.417,20.417 C20.417,18.620 18.947,17.150 17.150,17.150 C15.272,17.150 13.965,18.457 13.965,20.253 C13.965,20.253 13.965,20.498 13.965,20.498 C13.965,20.498 13.965,20.498 13.965,20.580 C13.965,20.743 13.965,20.743 13.965,20.825 C13.965,20.825 13.965,21.315 13.965,21.315 C13.965,21.315 13.475,21.560 13.475,21.560 C11.678,22.377 10.617,24.255 10.617,26.378 C10.617,29.400 12.903,31.850 15.680,31.850 C15.680,31.850 15.680,31.850 33.810,31.850 C34.980,31.850 36.018,31.440 36.809,30.739 C36.849,30.639 36.911,30.545 36.995,30.462 C37.073,30.383 37.161,30.324 37.253,30.284 C37.963,29.443 38.383,28.316 38.383,27.032 C38.383,24.582 36.832,22.458 34.627,22.050 C34.627,22.050 33.973,21.887 33.973,21.887 zM34.872,7.023 C34.790,7.023 34.627,7.023 34.545,6.942 C34.545,6.942 32.258,6.043 32.258,6.043 C31.850,5.798 31.687,5.390 31.850,4.982 C32.013,4.573 32.503,4.328 32.912,4.573 C32.912,4.573 32.912,4.573 35.198,5.472 C35.607,5.635 35.852,6.125 35.607,6.533 C35.443,6.778 35.198,7.023 34.872,7.023 zM29.563,4.818 C29.482,4.818 29.318,4.818 29.237,4.737 C29.237,4.737 29.237,4.737 28.566,4.462 C28.380,6.565 26.659,8.167 24.500,8.167 C22.341,8.167 20.620,6.565 20.434,4.462 C20.434,4.462 20.434,4.462 19.763,4.737 C19.682,4.818 19.518,4.818 19.437,4.818 C19.110,4.818 18.783,4.655 18.702,4.328 C18.538,3.920 18.702,3.430 19.110,3.267 C19.110,3.267 19.110,3.267 20.677,2.626 C21.253,1.078 22.729,-0.000 24.500,-0.000 C26.271,-0.000 27.747,1.078 28.323,2.626 C28.323,2.626 28.323,2.626 29.890,3.267 C30.298,3.430 30.543,3.920 30.298,4.328 C30.217,4.655 29.890,4.818 29.563,4.818 zM24.500,1.633 C23.112,1.633 22.050,2.695 22.050,4.083 C22.050,5.472 23.112,6.533 24.500,6.533 C25.888,6.533 26.950,5.472 26.950,4.083 C26.950,2.695 25.888,1.633 24.500,1.633 zM16.742,6.043 C16.742,6.043 16.742,6.043 14.455,6.942 C14.373,6.942 14.210,7.023 14.128,7.023 C13.802,7.023 13.475,6.860 13.393,6.533 C13.230,6.125 13.393,5.635 13.802,5.472 C13.802,5.472 13.802,5.472 16.088,4.573 C16.497,4.410 16.987,4.573 17.150,4.982 C17.313,5.390 17.150,5.880 16.742,6.043 zM10.698,8.493 C10.698,8.493 10.698,8.493 7.781,9.676 C8.029,10.206 8.167,10.801 8.167,11.433 C8.167,11.789 8.123,12.133 8.041,12.460 C8.041,12.460 8.041,12.460 9.882,13.638 C10.290,13.883 10.372,14.373 10.127,14.782 C9.963,15.027 9.718,15.190 9.392,15.190 C9.228,15.190 9.065,15.190 8.983,15.027 C8.983,15.027 8.983,15.027 7.312,13.957 C6.727,14.710 5.882,15.245 4.900,15.438 C4.900,15.438 4.900,15.438 4.900,17.967 C4.900,18.457 4.573,18.783 4.083,18.783 C3.593,18.783 3.267,18.457 3.267,17.967 C3.267,17.967 3.267,15.438 3.267,15.438 C1.383,15.068 -0.000,13.440 -0.000,11.433 C-0.000,9.147 1.797,7.350 4.083,7.350 C5.142,7.350 6.096,7.736 6.815,8.377 C6.875,8.324 6.945,8.280 7.023,8.248 C7.023,8.248 7.023,8.248 10.045,7.023 C10.453,6.860 10.943,7.023 11.107,7.432 C11.270,7.840 11.107,8.330 10.698,8.493 zM4.083,8.983 C2.695,8.983 1.633,10.045 1.633,11.433 C1.633,12.822 2.695,13.883 4.083,13.883 C5.472,13.883 6.533,12.822 6.533,11.433 C6.533,10.045 5.472,8.983 4.083,8.983 zM4.083,26.133 C3.593,26.133 3.267,25.807 3.267,25.317 C3.267,25.317 3.267,25.317 3.267,22.867 C3.267,22.377 3.593,22.050 4.083,22.050 C4.573,22.050 4.900,22.377 4.900,22.867 C4.900,22.867 4.900,22.867 4.900,25.317 C4.900,25.807 4.573,26.133 4.083,26.133 zM3.267,32.746 C3.267,32.746 3.267,32.746 3.267,28.583 C3.267,28.093 3.593,27.767 4.083,27.767 C4.573,27.767 4.900,28.093 4.900,28.583 C4.900,28.583 4.900,28.583 4.900,32.746 C5.477,32.859 6.007,33.091 6.465,33.416 C6.465,33.416 6.465,33.416 8.167,32.258 C8.575,32.013 9.065,32.095 9.310,32.503 C9.555,32.912 9.473,33.402 9.065,33.647 C9.065,33.647 9.065,33.647 7.597,34.645 C7.960,35.256 8.167,35.975 8.167,36.750 C8.167,37.120 8.119,37.477 8.030,37.815 C8.030,37.815 10.617,39.037 10.617,39.037 C11.025,39.200 11.188,39.690 11.025,40.098 C10.943,40.425 10.617,40.588 10.290,40.588 C10.208,40.588 10.045,40.588 9.963,40.507 C9.963,40.507 9.963,40.507 7.323,39.260 C6.582,40.222 5.416,40.833 4.083,40.833 C1.797,40.833 -0.000,39.037 -0.000,36.750 C-0.000,34.744 1.383,33.115 3.267,32.746 zM4.083,39.200 C5.472,39.200 6.533,38.138 6.533,36.750 C6.533,35.362 5.472,34.300 4.083,34.300 C2.695,34.300 1.633,35.362 1.633,36.750 C1.633,38.138 2.695,39.200 4.083,39.200 zM14.373,40.752 C14.373,40.752 16.578,41.813 16.578,41.813 C16.987,41.977 17.150,42.467 16.987,42.875 C16.823,43.202 16.497,43.365 16.252,43.365 C16.170,43.365 16.007,43.365 15.925,43.283 C15.925,43.283 15.925,43.283 13.720,42.222 C13.312,42.058 13.148,41.568 13.312,41.160 C13.475,40.752 13.965,40.588 14.373,40.752 zM19.518,43.202 C19.518,43.202 19.518,43.202 20.590,43.716 C21.093,42.032 22.633,40.833 24.500,40.833 C26.367,40.833 27.907,42.032 28.410,43.716 C28.410,43.716 29.482,43.202 29.482,43.202 C29.890,43.038 30.380,43.202 30.543,43.610 C30.707,44.018 30.543,44.508 30.135,44.672 C30.135,44.672 30.135,44.672 28.551,45.432 C28.304,47.467 26.612,49.000 24.500,49.000 C22.388,49.000 20.696,47.467 20.449,45.432 C20.449,45.432 20.449,45.432 18.865,44.672 C18.457,44.508 18.293,44.018 18.457,43.610 C18.620,43.202 19.110,43.038 19.518,43.202 zM24.500,47.367 C25.888,47.367 26.950,46.305 26.950,44.917 C26.950,43.528 25.888,42.467 24.500,42.467 C23.112,42.467 22.050,43.528 22.050,44.917 C22.050,46.305 23.112,47.367 24.500,47.367 zM32.422,41.813 C32.422,41.813 34.627,40.752 34.627,40.752 C35.035,40.588 35.525,40.752 35.688,41.160 C35.852,41.568 35.688,42.058 35.280,42.222 C35.280,42.222 35.280,42.222 33.157,43.283 C32.993,43.365 32.912,43.365 32.748,43.365 C32.422,43.365 32.177,43.202 32.013,42.875 C31.850,42.467 32.013,41.977 32.422,41.813 zM44.917,25.317 C45.407,25.317 45.733,25.643 45.733,26.133 C45.733,26.133 45.733,26.133 45.733,28.583 C45.733,29.073 45.407,29.400 44.917,29.400 C44.427,29.400 44.100,29.073 44.100,28.583 C44.100,28.583 44.100,28.583 44.100,26.133 C44.100,25.643 44.427,25.317 44.917,25.317 zM44.917,19.600 C45.407,19.600 45.733,19.927 45.733,20.417 C45.733,20.417 45.733,20.417 45.733,22.867 C45.733,23.357 45.407,23.683 44.917,23.683 C44.427,23.683 44.100,23.357 44.100,22.867 C44.100,22.867 44.100,22.867 44.100,20.417 C44.100,19.927 44.427,19.600 44.917,19.600 zM38.383,39.037 C38.383,39.037 38.383,39.037 40.970,37.816 C40.881,37.477 40.833,37.120 40.833,36.750 C40.833,36.350 40.890,35.966 40.993,35.603 C40.993,35.603 40.993,35.603 39.935,34.545 C39.608,34.218 39.608,33.728 39.935,33.402 C40.262,33.075 40.752,33.075 41.078,33.402 C41.078,33.402 41.078,33.402 41.784,34.107 C42.363,33.417 43.171,32.928 44.100,32.746 C44.100,32.746 44.100,32.746 44.100,31.033 C44.100,30.543 44.427,30.217 44.917,30.217 C45.407,30.217 45.733,30.543 45.733,31.033 C45.733,31.033 45.733,32.746 45.733,32.746 C47.617,33.115 49.000,34.744 49.000,36.750 C49.000,39.037 47.203,40.833 44.917,40.833 C43.584,40.833 42.418,40.222 41.677,39.260 C41.677,39.260 41.677,39.260 39.037,40.507 C38.955,40.588 38.792,40.588 38.710,40.588 C38.383,40.588 38.138,40.425 37.975,40.098 C37.812,39.690 37.975,39.200 38.383,39.037 zM44.917,39.200 C46.305,39.200 47.367,38.138 47.367,36.750 C47.367,35.362 46.305,34.300 44.917,34.300 C43.528,34.300 42.467,35.362 42.467,36.750 C42.467,38.138 43.528,39.200 44.917,39.200 z" fill="#4fbe93" />
</svg>
