<svg version="1.1" xmlns="http://www.w3.org/2000/svg" xmlns:xlink="http://www.w3.org/1999/xlink" width="49" height="49" viewBox="0 0 49 49">
<g id="fser-icon4">
<path id="Color-Fill-6" d="M4.083,24.499 C13.066,24.499 13.066,24.499 13.066,24.499 C13.517,24.499 13.883,24.133 13.883,23.681 C13.883,23.230 13.517,22.865 13.066,22.865 C4.083,22.865 4.083,22.865 4.083,22.865 C3.632,22.865 3.266,23.230 3.266,23.681 C3.266,24.133 3.632,24.499 4.083,24.499 zM4.083,26.132 C3.632,26.132 3.266,26.498 3.266,26.948 C3.266,27.399 3.632,27.766 4.083,27.766 C8.166,27.766 8.166,27.766 8.166,27.766 C8.617,27.766 8.983,27.399 8.983,26.948 C8.983,26.498 8.617,26.132 8.166,26.132 C8.166,26.132 4.083,26.132 4.083,26.132 zM25.315,26.132 C25.766,26.132 26.132,25.767 26.132,25.316 C26.132,24.864 25.766,24.499 25.315,24.499 C23.682,24.499 23.682,24.499 23.682,24.499 C23.231,24.499 22.865,24.864 22.865,25.316 C22.865,25.767 23.231,26.132 23.682,26.132 C25.315,26.132 25.315,26.132 25.315,26.132 zM30.215,26.132 C30.666,26.132 31.032,25.767 31.032,25.316 C31.032,24.864 30.666,24.499 30.215,24.499 C28.582,24.499 28.582,24.499 28.582,24.499 C28.131,24.499 27.765,24.864 27.765,25.316 C27.765,25.767 28.131,26.132 28.582,26.132 C30.215,26.132 30.215,26.132 30.215,26.132 zM20.416,26.132 C20.867,26.132 21.232,25.767 21.232,25.316 C21.232,24.864 20.867,24.499 20.416,24.499 C18.783,24.499 18.783,24.499 18.783,24.499 C18.331,24.499 17.966,24.864 17.966,25.316 C17.966,25.767 18.331,26.132 18.783,26.132 C20.416,26.132 20.416,26.132 20.416,26.132 zM47.364,-0.002 C47.364,-0.002 39.198,-0.002 39.198,-0.002 C38.296,-0.001 37.566,0.730 37.565,1.631 C37.565,2.449 37.565,2.449 37.565,2.449 C37.565,2.449 33.342,2.449 33.342,2.449 C32.691,2.447 32.068,2.704 31.609,3.166 C31.461,3.315 31.461,3.315 31.461,3.315 C29.862,1.344 27.504,0.144 24.971,0.011 C22.438,-0.123 19.966,0.824 18.170,2.616 C18.163,2.620 18.153,2.622 18.147,2.629 C18.141,2.637 18.139,2.645 18.132,2.652 C17.649,3.142 17.223,3.686 16.863,4.275 C15.755,3.166 15.755,3.166 15.755,3.166 C15.297,2.704 14.673,2.447 14.023,2.449 C11.433,2.449 11.433,2.449 11.433,2.449 C11.433,2.449 11.433,1.631 11.433,1.631 C11.432,0.730 10.701,-0.001 9.800,-0.002 C1.633,-0.002 1.633,-0.002 1.633,-0.002 C0.731,-0.001 0.001,0.730 -0.000,1.631 C-0.000,4.899 -0.000,4.899 -0.000,4.899 C0.001,5.800 0.731,6.531 1.633,6.532 C9.800,6.532 9.800,6.532 9.800,6.532 C10.701,6.531 11.432,5.800 11.433,4.899 C11.433,4.082 11.433,4.082 11.433,4.082 C11.433,4.082 14.023,4.082 14.023,4.082 C14.239,4.082 14.447,4.168 14.600,4.321 C16.101,5.822 16.101,5.822 16.101,5.822 C15.814,6.574 15.631,7.363 15.557,8.165 C9.800,8.165 9.800,8.165 9.800,8.165 C8.447,8.166 7.351,9.263 7.350,10.615 C7.350,19.598 7.350,19.598 7.350,19.598 C7.350,19.598 1.633,19.598 1.633,19.598 C0.731,19.600 0.001,20.330 -0.000,21.231 C-0.000,29.398 -0.000,29.398 -0.000,29.398 C0.001,30.300 0.731,31.031 1.633,31.032 C15.516,31.032 15.516,31.032 15.516,31.032 C16.417,31.031 17.148,30.300 17.149,29.398 C17.149,21.231 17.149,21.231 17.149,21.231 C17.148,20.330 16.417,19.600 15.516,19.598 C8.983,19.598 8.983,19.598 8.983,19.598 C8.983,19.598 8.983,10.615 8.983,10.615 C8.983,10.165 9.349,9.798 9.800,9.798 C15.557,9.798 15.557,9.798 15.557,9.798 C15.977,14.424 19.855,17.964 24.499,17.964 C29.143,17.964 33.020,14.424 33.440,9.798 C40.015,9.798 40.015,9.798 40.015,9.798 C40.466,9.798 40.831,10.165 40.831,10.615 C40.831,17.655 40.831,17.655 40.831,17.655 L34.749,24.499 C34.749,24.499 33.482,24.499 33.482,24.499 C33.031,24.499 32.665,24.864 32.665,25.316 C32.665,25.767 33.031,26.132 33.482,26.132 C34.749,26.132 34.749,26.132 34.749,26.132 L40.831,32.975 C40.831,32.975 40.831,40.015 40.831,40.015 C40.831,40.467 40.466,40.831 40.015,40.831 C31.800,40.831 31.800,40.831 31.800,40.831 C31.367,36.956 27.981,34.093 24.087,34.310 C20.193,34.526 17.146,37.749 17.146,41.648 C17.146,45.550 20.193,48.770 24.087,48.986 C27.981,49.204 31.367,46.341 31.800,42.466 C40.015,42.466 40.015,42.466 40.015,42.466 C41.367,42.464 42.463,41.368 42.465,40.015 C42.465,32.975 42.465,32.975 42.465,32.975 C42.465,32.975 48.791,25.857 48.791,25.857 C49.066,25.548 49.066,25.082 48.791,24.774 C42.465,17.655 42.465,17.655 42.465,17.655 C42.465,17.655 42.465,10.615 42.465,10.615 C42.463,9.263 41.367,8.166 40.015,8.165 C33.440,8.165 33.440,8.165 33.440,8.165 C33.332,6.949 32.974,5.767 32.390,4.695 C32.764,4.321 32.764,4.321 32.764,4.321 C32.917,4.168 33.125,4.082 33.342,4.082 C37.565,4.082 37.565,4.082 37.565,4.082 C37.565,4.082 37.565,4.899 37.565,4.899 C37.566,5.800 38.296,6.531 39.198,6.532 C47.364,6.532 47.364,6.532 47.364,6.532 C48.266,6.531 48.996,5.800 48.997,4.899 C48.997,1.631 48.997,1.631 48.997,1.631 C48.996,0.730 48.266,-0.001 47.364,-0.002 C39.198,-0.002 47.364,-0.002 47.364,-0.002 zM1.633,4.899 L1.633,1.631 L9.800,1.631 L9.800,3.263 L9.800,3.266 L9.800,3.267 L9.801,4.899 L1.633,4.899 zM15.517,29.398 L1.633,29.398 L1.633,21.231 L15.516,21.231 L15.517,29.398 zM19.218,43.836 C18.333,41.700 18.822,39.242 20.457,37.605 C22.092,35.971 24.550,35.483 26.686,36.367 C28.822,37.251 30.215,39.336 30.215,41.648 C30.211,44.804 27.654,47.362 24.499,47.365 C22.187,47.365 20.102,45.972 19.218,43.836 zM41.648,31.436 L36.208,25.316 L41.648,19.194 L47.088,25.316 L41.648,31.436 zM22.527,8.165 C22.527,8.165 17.197,8.165 17.197,8.165 C17.238,7.811 17.306,7.460 17.398,7.115 C17.719,7.433 18.235,7.427 18.552,7.107 C18.867,6.787 18.864,6.270 18.543,5.955 C18.050,5.461 18.050,5.461 18.050,5.461 C18.256,5.087 18.494,4.733 18.762,4.400 C18.762,4.400 22.527,8.165 22.527,8.165 zM24.161,9.798 C24.161,9.798 29.081,14.719 29.081,14.719 C26.992,16.394 24.157,16.797 21.684,15.775 C19.210,14.749 17.491,12.460 17.197,9.798 C17.197,9.798 24.161,9.798 24.161,9.798 zM30.236,13.564 C19.917,3.244 19.917,3.244 19.917,3.244 C21.450,2.014 23.413,1.450 25.366,1.683 C27.318,1.916 29.094,2.924 30.296,4.481 C28.821,5.955 28.821,5.955 28.821,5.955 C28.609,6.159 28.524,6.463 28.598,6.748 C28.673,7.033 28.896,7.257 29.182,7.332 C29.467,7.407 29.771,7.321 29.976,7.108 C31.169,5.916 31.169,5.916 31.169,5.916 C31.616,6.876 31.847,7.922 31.848,8.982 C31.849,10.648 31.280,12.266 30.236,13.564 zM47.364,4.899 L39.198,4.899 L39.198,1.631 L47.364,1.631 L47.364,4.899 z" fill="#45ba8d" />
</g>
</svg>
