<svg version="1.1" xmlns="http://www.w3.org/2000/svg" xmlns:xlink="http://www.w3.org/1999/xlink" width="49" height="49" viewBox="0 0 49 49">
<path id="Telecom" d="M38.309,5.345 C38.309,6.268 38.543,7.135 38.956,7.893 C30.199,16.650 30.199,16.650 30.199,16.650 C28.992,15.710 27.481,15.145 25.836,15.145 C24.192,15.145 22.681,15.710 21.473,16.649 C14.640,9.817 14.640,9.817 14.640,9.817 C14.954,9.287 15.145,8.677 15.145,8.018 C15.145,6.053 13.547,4.455 11.582,4.455 C9.616,4.455 8.018,6.053 8.018,8.018 C8.018,9.984 9.616,11.582 11.582,11.582 C12.241,11.582 12.850,11.390 13.381,11.077 C20.213,17.909 20.213,17.909 20.213,17.909 C19.274,19.117 18.709,20.628 18.709,22.273 C18.709,23.917 19.274,25.428 20.213,26.636 C8.930,37.919 8.930,37.919 8.930,37.919 C7.981,37.057 6.725,36.527 5.345,36.527 C2.397,36.527 -0.000,38.925 -0.000,41.873 C-0.000,44.821 2.397,47.218 5.345,47.218 C8.293,47.218 10.691,44.821 10.691,41.873 C10.691,40.951 10.457,40.083 10.044,39.325 C21.474,27.895 21.474,27.895 21.474,27.895 C22.459,28.661 23.647,29.175 24.946,29.338 C24.946,38.389 24.946,38.389 24.946,38.389 C22.422,38.815 20.492,41.010 20.492,43.655 C20.492,46.603 22.889,49.000 25.837,49.000 C28.785,49.000 31.183,46.603 31.183,43.655 C31.183,41.011 29.252,38.816 26.728,38.389 C26.728,29.338 26.728,29.338 26.728,29.338 C28.027,29.175 29.216,28.661 30.201,27.895 C37.033,34.728 37.033,34.728 37.033,34.728 C36.719,35.259 36.527,35.868 36.527,36.527 C36.527,38.493 38.126,40.091 40.091,40.091 C42.056,40.091 43.655,38.493 43.655,36.527 C43.655,34.562 42.056,32.964 40.091,32.964 C39.432,32.964 38.822,33.155 38.292,33.469 C31.460,26.636 31.460,26.636 31.460,26.636 C32.399,25.428 32.964,23.917 32.964,22.273 C32.964,20.628 32.399,19.117 31.460,17.910 C40.070,9.299 40.070,9.299 40.070,9.299 C41.019,10.161 42.275,10.691 43.655,10.691 C46.603,10.691 49.000,8.293 49.000,5.345 C49.000,2.397 46.603,-0.000 43.655,-0.000 C40.707,-0.000 38.309,2.397 38.309,5.345 zM11.582,6.236 C12.564,6.236 13.364,7.036 13.364,8.018 C13.364,9.001 12.564,9.800 11.582,9.800 C10.599,9.800 9.800,9.001 9.800,8.018 C9.800,7.036 10.599,6.236 11.582,6.236 zM1.782,41.873 C1.782,39.907 3.380,38.309 5.345,38.309 C7.311,38.309 8.909,39.907 8.909,41.873 C8.909,43.838 7.311,45.436 5.345,45.436 C3.380,45.436 1.782,43.838 1.782,41.873 zM25.836,47.218 C23.871,47.218 22.273,45.620 22.273,43.655 C22.273,41.689 23.871,40.091 25.836,40.091 C27.802,40.091 29.400,41.689 29.400,43.655 C29.400,45.620 27.802,47.218 25.836,47.218 zM20.491,22.273 C20.491,19.325 22.888,16.927 25.836,16.927 C28.784,16.927 31.182,19.325 31.182,22.273 C31.182,25.221 28.784,27.618 25.836,27.618 C22.888,27.618 20.491,25.221 20.491,22.273 zM40.091,38.309 C39.108,38.309 38.309,37.510 38.309,36.527 C38.309,35.545 39.108,34.745 40.091,34.745 C41.074,34.745 41.873,35.545 41.873,36.527 C41.873,37.510 41.074,38.309 40.091,38.309 zM40.091,5.345 C40.091,3.380 41.689,1.782 43.655,1.782 C45.620,1.782 47.218,3.380 47.218,5.345 C47.218,7.311 45.620,8.909 43.655,8.909 C41.689,8.909 40.091,7.311 40.091,5.345 z" fill="#4fbe93" />
</svg>
