<svg version="1.1" xmlns="http://www.w3.org/2000/svg" xmlns:xlink="http://www.w3.org/1999/xlink" width="44" height="54" viewBox="0 0 44 54">
<g id="fser-icon1">
<path id="Color-Fill-4" d="M2.717,47.698 C2.721,51.176 5.594,53.995 9.139,53.998 C34.826,53.998 34.826,53.998 34.826,53.998 C38.370,53.995 41.243,51.176 41.247,47.698 C41.247,30.445 41.247,30.445 41.247,30.445 C41.247,30.445 43.462,28.271 43.462,28.271 C44.177,27.568 44.177,26.429 43.462,25.725 C41.247,23.554 41.247,23.554 41.247,23.554 C41.247,23.554 41.247,6.299 41.247,6.299 C41.243,2.821 38.370,0.003 34.826,-0.003 C9.139,-0.003 9.139,-0.003 9.139,-0.003 C5.594,0.003 2.721,2.821 2.717,6.299 C2.717,23.554 2.717,23.554 2.717,23.554 C2.717,23.554 0.502,25.725 0.502,25.725 C-0.213,26.429 -0.213,27.568 0.502,28.271 C2.717,30.445 2.717,30.445 2.717,30.445 C2.717,30.445 2.717,47.698 2.717,47.698 zM9.139,52.198 C6.606,52.195 4.555,50.182 4.552,47.698 C4.552,45.897 4.552,45.897 4.552,45.897 L39.412,45.897 C39.412,45.897 39.412,47.698 39.412,47.698 C39.409,50.182 37.357,52.195 34.826,52.198 C34.826,52.198 9.139,52.198 9.139,52.198 zM29.914,39.017 L27.968,37.107 C27.968,37.107 37.624,27.635 37.624,27.635 C37.982,27.283 37.982,26.713 37.624,26.362 C27.968,16.889 27.968,16.889 27.968,16.889 L29.914,14.981 L42.165,26.999 L29.914,39.017 zM34.826,1.799 C37.357,1.802 39.409,3.814 39.412,6.299 C39.412,8.098 39.412,8.098 39.412,8.098 L4.552,8.098 C4.552,8.098 4.552,6.299 4.552,6.299 C4.555,3.814 6.606,1.802 9.139,1.799 C9.139,1.799 34.826,1.799 34.826,1.799 zM14.050,14.981 L15.996,16.889 C15.996,16.889 6.340,26.362 6.340,26.362 C5.982,26.713 5.982,27.283 6.340,27.635 C15.996,37.107 15.996,37.107 15.996,37.107 L14.051,39.017 L1.799,26.999 L14.050,14.981 zM12.753,40.289 C13.470,40.990 14.631,40.990 15.348,40.289 C17.293,38.381 17.293,38.381 17.293,38.381 C18.009,37.676 18.009,36.538 17.293,35.835 C8.285,26.999 8.285,26.999 8.285,26.999 C8.285,26.999 17.293,18.162 17.293,18.162 C18.008,17.460 18.008,16.321 17.293,15.617 C15.347,13.708 15.347,13.708 15.347,13.708 C14.630,13.005 13.469,13.005 12.752,13.708 C4.552,21.753 4.552,21.753 4.552,21.753 L4.552,9.899 L39.412,9.899 L39.412,21.753 C39.412,21.753 31.211,13.708 31.211,13.708 C30.494,13.005 29.333,13.005 28.616,13.708 C26.671,15.617 26.671,15.617 26.671,15.617 C25.955,16.321 25.955,17.460 26.671,18.162 C35.678,26.999 35.678,26.999 35.678,26.999 C35.678,26.999 26.672,35.835 26.672,35.835 C25.955,36.538 25.955,37.676 26.672,38.381 C28.617,40.289 28.617,40.289 28.617,40.289 C29.334,40.990 30.495,40.990 31.212,40.289 C39.413,32.243 39.413,32.243 39.413,32.243 L39.413,44.099 L4.552,44.099 L4.552,32.243 C4.552,32.243 12.753,40.289 12.753,40.289 zM14.295,6.226 C14.347,6.253 14.402,6.271 14.460,6.280 C14.520,6.291 14.582,6.296 14.643,6.299 C14.887,6.302 15.122,6.206 15.294,6.038 C15.467,5.868 15.563,5.638 15.560,5.398 C15.563,5.033 15.339,4.701 14.995,4.562 C14.651,4.422 14.254,4.500 13.992,4.760 C13.909,4.846 13.843,4.946 13.799,5.057 C13.752,5.165 13.727,5.282 13.725,5.398 C13.729,5.637 13.824,5.865 13.992,6.038 C14.035,6.076 14.081,6.112 14.129,6.146 C14.181,6.179 14.236,6.206 14.295,6.226 zM29.321,6.299 C29.828,6.299 30.239,5.895 30.239,5.398 C30.239,4.902 29.828,4.499 29.321,4.499 C19.230,4.499 19.230,4.499 19.230,4.499 C18.723,4.499 18.313,4.902 18.313,5.398 C18.313,5.895 18.723,6.299 19.230,6.299 C19.230,6.299 29.321,6.299 29.321,6.299 zM21.043,48.598 C20.536,48.598 20.126,49.001 20.126,49.499 C20.126,49.996 20.536,50.398 21.043,50.398 C22.878,50.398 22.878,50.398 22.878,50.398 C23.385,50.398 23.795,49.996 23.795,49.499 C23.795,49.001 23.385,48.598 22.878,48.598 C22.878,48.598 21.043,48.598 21.043,48.598 z" fill="#45ba8d" />
</g>
</svg>
