<svg version="1.1" xmlns="http://www.w3.org/2000/svg" xmlns:xlink="http://www.w3.org/1999/xlink" width="51" height="54" viewBox="0 0 51 54">
<path id="Mobile-Banking" d="M47.422,40.500 C47.422,40.500 31.316,40.500 31.316,40.500 L31.316,46.800 C31.316,46.800 31.316,46.800 31.316,50.400 C31.316,52.380 29.705,54.000 27.737,54.000 C27.737,54.000 27.737,54.000 4.473,54.000 C2.504,54.000 0.893,52.380 0.893,50.400 C0.893,50.400 0.893,46.800 0.893,46.800 C0.893,46.800 0.893,46.800 0.893,18.000 C0.357,18.000 -0.001,17.640 -0.001,17.100 C-0.001,17.100 -0.001,17.100 -0.001,16.200 C-0.001,15.660 0.357,15.300 0.893,15.300 C0.893,15.300 0.893,15.300 0.893,14.400 C0.357,14.400 -0.001,14.040 -0.001,13.500 C-0.001,13.500 -0.001,13.500 -0.001,12.600 C-0.001,12.060 0.357,11.700 0.893,11.700 C0.893,11.700 0.893,11.700 0.893,10.800 C0.357,10.800 -0.001,10.440 -0.001,9.900 C-0.001,9.900 -0.001,9.900 -0.001,9.000 C-0.001,8.460 0.357,8.100 0.893,8.100 C0.893,8.100 0.893,5.400 0.893,5.400 C0.893,5.400 0.893,5.400 0.893,3.600 C0.893,1.620 2.504,-0.000 4.473,-0.000 C4.473,-0.000 4.473,-0.000 27.737,-0.000 C29.706,-0.000 31.316,1.620 31.316,3.600 C31.316,3.600 31.316,5.400 31.316,5.400 L31.316,11.700 C31.316,11.700 47.422,11.700 47.422,11.700 C49.391,11.700 51.001,13.320 51.001,15.300 C51.001,15.300 51.001,17.100 51.001,17.100 L51.001,22.500 C51.001,22.500 51.001,22.500 51.001,36.900 C51.001,38.880 49.391,40.500 47.422,40.500 zM31.316,38.700 C31.316,38.700 47.422,38.700 47.422,38.700 C48.406,38.700 49.212,37.890 49.212,36.900 C49.212,36.900 49.212,23.400 49.212,23.400 L14.315,23.400 C14.315,23.400 14.315,23.400 14.315,36.900 C14.315,37.890 15.120,38.700 16.105,38.700 C16.105,38.700 31.316,38.700 31.316,38.700 zM49.212,21.600 L49.212,18.000 L14.315,18.000 L14.315,21.600 L49.212,21.600 zM18.464,52.200 C18.464,52.200 18.464,52.200 27.737,52.200 C28.721,52.200 29.527,51.390 29.527,50.400 C29.527,50.400 29.527,46.800 29.527,46.800 C29.527,46.800 29.527,46.800 18.464,46.800 C19.211,47.461 19.684,48.427 19.684,49.500 C19.684,50.573 19.211,51.539 18.464,52.200 zM16.105,51.300 C17.089,51.300 17.894,50.490 17.894,49.500 C17.894,48.510 17.089,47.700 16.105,47.700 C15.120,47.700 14.315,48.510 14.315,49.500 C14.315,50.490 15.120,51.300 16.105,51.300 zM2.683,50.400 C2.683,51.390 3.488,52.200 4.473,52.200 C4.473,52.200 4.473,52.200 13.745,52.200 C12.999,51.539 12.526,50.573 12.526,49.500 C12.526,48.427 12.999,47.461 13.745,46.800 C13.745,46.800 2.683,46.800 2.683,46.800 C2.683,46.800 2.683,50.400 2.683,50.400 zM2.683,45.000 L29.527,45.000 L29.527,40.500 C29.527,40.500 29.527,40.500 16.105,40.500 C14.136,40.500 12.526,38.880 12.526,36.900 C12.526,36.900 12.526,22.500 12.526,22.500 L12.526,17.100 C12.526,17.100 12.526,17.100 12.526,15.300 C12.526,13.320 14.136,11.700 16.105,11.700 C16.105,11.700 29.527,11.700 29.527,11.700 L29.527,7.200 L2.683,7.200 L2.683,45.000 zM29.527,3.600 C29.527,2.610 28.721,1.800 27.737,1.800 C27.737,1.800 27.737,1.800 4.473,1.800 C3.488,1.800 2.683,2.610 2.683,3.600 C2.683,3.600 2.683,3.600 2.683,3.600 L2.683,5.400 L29.527,5.400 C29.527,5.400 29.527,5.400 29.527,3.600 zM49.212,15.300 C49.212,14.310 48.407,13.500 47.422,13.500 C47.422,13.500 31.316,13.500 31.316,13.500 C31.316,13.500 31.316,13.500 16.105,13.500 C15.121,13.500 14.315,14.310 14.315,15.300 C14.315,15.300 14.315,16.200 14.315,16.200 L49.212,16.200 C49.212,16.200 49.212,16.200 49.212,15.300 zM11.631,2.700 C11.631,2.700 12.526,2.700 12.526,2.700 C13.063,2.700 13.420,3.060 13.420,3.600 C13.420,4.140 13.063,4.500 12.526,4.500 C12.526,4.500 12.526,4.500 11.631,4.500 C11.094,4.500 10.736,4.140 10.736,3.600 C10.736,3.060 11.094,2.700 11.631,2.700 zM15.210,2.700 C15.210,2.700 19.684,2.700 19.684,2.700 C20.221,2.700 20.579,3.060 20.579,3.600 C20.579,4.140 20.221,4.500 19.684,4.500 C19.684,4.500 19.684,4.500 15.210,4.500 C14.673,4.500 14.315,4.140 14.315,3.600 C14.315,3.060 14.673,2.700 15.210,2.700 zM17.000,29.700 C17.000,29.700 25.858,29.700 25.858,29.700 C26.395,29.700 26.753,30.060 26.753,30.600 C26.753,31.140 26.305,31.500 25.858,31.500 C25.858,31.500 25.858,31.500 17.000,31.500 C16.463,31.500 16.105,31.140 16.105,30.600 C16.105,30.060 16.463,29.700 17.000,29.700 zM28.632,29.700 C28.632,29.700 30.332,29.700 30.332,29.700 C30.869,29.700 31.227,30.060 31.227,30.600 C31.227,31.140 30.869,31.500 30.332,31.500 C30.332,31.500 30.332,31.500 28.632,31.500 C28.095,31.500 27.737,31.140 27.737,30.600 C27.737,30.060 28.095,29.700 28.632,29.700 zM30.332,27.900 C30.332,27.900 30.332,27.900 24.516,27.900 C23.979,27.900 23.621,27.540 23.621,27.000 C23.621,26.460 23.979,26.100 24.516,26.100 C24.516,26.100 30.332,26.100 30.332,26.100 C30.869,26.100 31.227,26.460 31.227,27.000 C31.227,27.540 30.869,27.900 30.332,27.900 zM21.473,27.900 C21.473,27.900 17.000,27.900 17.000,27.900 C16.463,27.900 16.105,27.540 16.105,27.000 C16.105,26.460 16.463,26.100 17.000,26.100 C17.000,26.100 17.000,26.100 21.473,26.100 C22.010,26.100 22.368,26.460 22.368,27.000 C22.368,27.540 22.010,27.900 21.473,27.900 zM34.895,28.800 C34.895,28.800 46.527,28.800 46.527,28.800 C47.064,28.800 47.422,29.160 47.422,29.700 C47.422,29.700 47.422,29.700 47.422,36.000 C47.422,36.540 47.064,36.900 46.527,36.900 C46.527,36.900 46.527,36.900 34.895,36.900 C34.358,36.900 34.000,36.540 34.000,36.000 C34.000,36.000 34.000,36.000 34.000,29.700 C34.000,29.160 34.358,28.800 34.895,28.800 zM35.790,35.100 L45.633,35.100 L45.633,30.600 L35.790,30.600 L35.790,35.100 z" fill="#45BA8D" />
</svg>
