<svg version="1.1" xmlns="http://www.w3.org/2000/svg" xmlns:xlink="http://www.w3.org/1999/xlink" width="49" height="49" viewBox="0 0 49 49">
<path id="SEO" d="M1.634,39.200 C0.732,39.202 0.001,39.932 0.000,40.834 C0.000,47.367 0.000,47.367 0.000,47.367 C0.001,48.269 0.732,48.999 1.634,49.001 C8.167,49.001 8.167,49.001 8.167,49.001 C9.069,48.999 9.799,48.269 9.800,47.367 C9.800,40.834 9.800,40.834 9.800,40.834 C9.799,39.932 9.069,39.202 8.167,39.200 C8.167,39.200 1.634,39.200 1.634,39.200 zM1.634,40.834 L8.167,40.834 L8.169,47.367 L1.634,47.367 L1.634,40.834 zM14.700,34.300 C13.799,34.302 13.068,35.032 13.067,35.934 C13.067,47.367 13.067,47.367 13.067,47.367 C13.068,48.269 13.799,48.999 14.700,49.001 C21.234,49.001 21.234,49.001 21.234,49.001 C22.135,48.999 22.866,48.269 22.867,47.367 C22.867,35.934 22.867,35.934 22.867,35.934 C22.866,35.032 22.135,34.302 21.234,34.300 C21.234,34.300 14.700,34.300 14.700,34.300 zM14.700,35.934 L21.234,35.934 L21.235,47.367 L14.700,47.367 L14.700,35.934 zM27.767,26.134 C26.865,26.135 26.135,26.866 26.134,27.767 C26.134,47.367 26.134,47.367 26.134,47.367 C26.135,48.269 26.865,48.999 27.767,49.001 C34.300,49.001 34.300,49.001 34.300,49.001 C35.202,48.999 35.932,48.269 35.934,47.367 C35.934,27.767 35.934,27.767 35.934,27.767 C35.932,26.866 35.202,26.135 34.300,26.134 C34.300,26.134 27.767,26.134 27.767,26.134 zM27.767,27.767 L34.300,27.767 L34.302,47.367 L27.767,47.367 L27.767,27.767 zM46.550,21.234 C46.550,21.234 46.550,2.435 46.550,2.435 C46.542,1.087 45.447,0.000 44.100,0.000 C42.753,0.000 41.659,1.087 41.650,2.435 C41.650,2.451 41.650,2.451 41.650,2.451 C41.650,2.451 33.484,2.451 33.484,2.451 C32.582,2.452 31.851,3.182 31.850,4.084 C31.850,5.717 31.850,5.717 31.850,5.717 C31.850,5.717 24.500,5.717 24.500,5.717 C24.184,5.718 23.895,5.901 23.761,6.188 C23.627,6.475 23.670,6.813 23.873,7.057 C27.521,11.434 27.521,11.434 27.521,11.434 C27.521,11.434 23.873,15.811 23.873,15.811 C23.670,16.054 23.627,16.393 23.761,16.680 C23.895,16.967 24.184,17.150 24.500,17.151 C36.750,17.151 36.750,17.151 36.750,17.151 C37.652,17.149 38.383,16.419 38.384,15.517 C38.384,13.884 38.384,13.884 38.384,13.884 L41.650,13.884 L41.650,21.234 C41.650,21.234 40.834,21.234 40.834,21.234 C39.932,21.235 39.202,21.966 39.200,22.867 C39.200,47.367 39.200,47.367 39.200,47.367 C39.201,48.269 39.932,48.999 40.834,49.001 C47.367,49.001 47.367,49.001 47.367,49.001 C48.269,48.999 48.999,48.269 49.000,47.367 C49.000,22.867 49.000,22.867 49.000,22.867 C48.999,21.966 48.269,21.235 47.367,21.234 C47.367,21.234 46.550,21.234 46.550,21.234 zM43.284,13.067 C43.284,13.067 43.284,2.435 43.284,2.435 C43.292,1.990 43.655,1.634 44.100,1.634 C44.545,1.634 44.908,1.990 44.917,2.435 C44.917,21.234 44.917,21.234 44.917,21.234 L43.283,21.234 L43.283,13.067 L43.284,13.067 zM36.750,15.517 L26.244,15.517 C26.244,15.517 29.211,11.957 29.211,11.957 C29.463,11.654 29.463,11.214 29.211,10.911 C26.244,7.351 26.244,7.351 26.244,7.351 L31.850,7.351 C31.850,7.351 31.850,12.251 31.850,12.251 C31.851,13.152 32.582,13.883 33.484,13.884 C36.750,13.884 36.750,13.884 36.750,13.884 L36.750,15.517 L36.750,15.517 zM33.484,4.084 L41.650,4.084 L41.650,12.250 L33.484,12.250 L33.484,4.084 zM40.834,22.867 L47.367,22.867 L47.369,47.367 L40.834,47.367 L40.834,22.867 z" fill="#4fbe93" />
</svg>
