<svg version="1.1" xmlns="http://www.w3.org/2000/svg" xmlns:xlink="http://www.w3.org/1999/xlink" width="54" height="54" viewBox="0 0 54 54">
<path id="VAS" d="M3.600,40.500 C3.600,42.488 5.212,44.100 7.200,44.100 C9.188,44.100 10.800,42.488 10.800,40.500 C10.800,38.512 9.188,36.900 7.200,36.900 C5.212,36.900 3.600,38.512 3.600,40.500 zM5.400,40.500 C5.400,39.506 6.206,38.700 7.200,38.700 C8.194,38.700 9.000,39.506 9.000,40.500 C9.000,41.494 8.194,42.300 7.200,42.300 C6.206,42.300 5.400,41.494 5.400,40.500 zM15.300,36.900 C13.809,36.900 12.600,38.109 12.600,39.600 C12.600,41.400 12.600,41.400 12.600,41.400 C12.600,42.891 13.809,44.100 15.300,44.100 C26.100,44.100 26.100,44.100 26.100,44.100 C27.591,44.100 28.800,42.891 28.800,41.400 C28.800,39.600 28.800,39.600 28.800,39.600 C28.800,38.109 27.591,36.900 26.100,36.900 C26.100,36.900 15.300,36.900 15.300,36.900 zM27.000,41.400 C27.000,41.897 26.597,42.300 26.100,42.300 C15.300,42.300 15.300,42.300 15.300,42.300 C14.803,42.300 14.400,41.897 14.400,41.400 C14.400,39.600 14.400,39.600 14.400,39.600 C14.400,39.103 14.803,38.700 15.300,38.700 C26.100,38.700 26.100,38.700 26.100,38.700 C26.597,38.700 27.000,39.103 27.000,39.600 C27.000,41.400 27.000,41.400 27.000,41.400 zM10.800,15.300 C10.800,13.312 9.188,11.700 7.200,11.700 C5.212,11.700 3.600,13.312 3.600,15.300 C3.600,17.288 5.212,18.900 7.200,18.900 C9.188,18.900 10.800,17.288 10.800,15.300 zM9.000,15.300 C9.000,16.294 8.194,17.100 7.200,17.100 C6.206,17.100 5.400,16.294 5.400,15.300 C5.400,14.306 6.206,13.500 7.200,13.500 C8.194,13.500 9.000,14.306 9.000,15.300 zM17.100,31.500 C18.591,31.500 19.800,30.291 19.800,28.800 C19.800,27.000 19.800,27.000 19.800,27.000 C19.800,25.509 18.591,24.300 17.100,24.300 C6.300,24.300 6.300,24.300 6.300,24.300 C4.809,24.300 3.600,25.509 3.600,27.000 C3.600,28.800 3.600,28.800 3.600,28.800 C3.600,30.291 4.809,31.500 6.300,31.500 C6.300,31.500 17.100,31.500 17.100,31.500 zM5.400,27.000 C5.400,26.503 5.803,26.100 6.300,26.100 C17.100,26.100 17.100,26.100 17.100,26.100 C17.597,26.100 18.000,26.503 18.000,27.000 C18.000,28.800 18.000,28.800 18.000,28.800 C18.000,29.297 17.597,29.700 17.100,29.700 C6.300,29.700 6.300,29.700 6.300,29.700 C5.803,29.700 5.400,29.297 5.400,28.800 C5.400,27.000 5.400,27.000 5.400,27.000 zM32.400,5.400 C32.400,5.400 32.400,3.600 32.400,3.600 C32.400,1.612 30.788,-0.000 28.800,-0.000 C3.600,-0.000 3.600,-0.000 3.600,-0.000 C1.612,-0.000 -0.000,1.612 -0.000,3.600 C-0.000,50.400 -0.000,50.400 -0.000,50.400 C-0.000,52.388 1.612,54.000 3.600,54.000 C28.800,54.000 28.800,54.000 28.800,54.000 C30.788,54.000 32.400,52.388 32.400,50.400 C32.400,34.130 32.400,34.130 32.400,34.130 C32.400,34.130 36.521,31.840 36.521,31.840 C36.922,31.618 37.374,31.501 37.832,31.500 C51.300,31.500 51.300,31.500 51.300,31.500 C52.791,31.500 54.000,30.291 54.000,28.800 C54.000,8.100 54.000,8.100 54.000,8.100 C54.000,6.609 52.791,5.400 51.300,5.400 C51.300,5.400 32.400,5.400 32.400,5.400 zM23.122,1.800 C23.122,1.800 21.967,3.031 21.967,3.031 C21.627,3.394 21.152,3.600 20.655,3.600 C11.745,3.600 11.745,3.600 11.745,3.600 C11.248,3.599 10.773,3.394 10.432,3.031 C9.278,1.800 9.278,1.800 9.278,1.800 L23.122,1.800 zM3.600,52.200 C2.606,52.200 1.800,51.394 1.800,50.400 C1.800,49.000 1.800,49.000 1.800,49.000 C2.345,49.324 2.966,49.496 3.600,49.500 C28.800,49.500 28.800,49.500 28.800,49.500 C29.434,49.496 30.055,49.324 30.600,49.000 C30.600,50.400 30.600,50.400 30.600,50.400 C30.600,51.394 29.794,52.200 28.800,52.200 C28.800,52.200 3.600,52.200 3.600,52.200 zM30.600,45.900 C30.600,46.894 29.794,47.700 28.800,47.700 C3.600,47.700 3.600,47.700 3.600,47.700 C2.606,47.700 1.800,46.894 1.800,45.900 C1.800,3.600 1.800,3.600 1.800,3.600 C1.800,2.606 2.606,1.800 3.600,1.800 C6.810,1.800 6.810,1.800 6.810,1.800 C6.810,1.800 9.119,4.262 9.119,4.262 C9.800,4.987 10.750,5.398 11.745,5.400 C20.655,5.400 20.655,5.400 20.655,5.400 C21.650,5.399 22.600,4.987 23.281,4.262 C25.590,1.800 25.590,1.800 25.590,1.800 C25.590,1.800 28.800,1.800 28.800,1.800 C29.794,1.800 30.600,2.606 30.600,3.600 C30.600,5.400 30.600,5.400 30.600,5.400 C30.600,5.400 26.100,5.400 26.100,5.400 C24.609,5.400 23.400,6.609 23.400,8.100 C23.400,11.700 23.400,11.700 23.400,11.700 C23.400,11.700 15.300,11.700 15.300,11.700 C13.809,11.700 12.600,12.909 12.600,14.400 C12.600,16.200 12.600,16.200 12.600,16.200 C12.600,17.691 13.809,18.900 15.300,18.900 C23.400,18.900 23.400,18.900 23.400,18.900 C23.400,18.900 23.400,28.800 23.400,28.800 C23.400,30.291 24.609,31.500 26.100,31.500 C27.900,31.500 27.900,31.500 27.900,31.500 C27.900,31.500 27.900,35.100 27.900,35.100 C27.900,35.419 28.069,35.714 28.343,35.875 C28.618,36.037 28.958,36.041 29.236,35.887 C30.600,35.130 30.600,35.130 30.600,35.130 C30.600,35.130 30.600,45.900 30.600,45.900 zM23.400,17.100 C23.400,17.100 15.300,17.100 15.300,17.100 C14.803,17.100 14.400,16.697 14.400,16.200 C14.400,14.400 14.400,14.400 14.400,14.400 C14.400,13.903 14.803,13.500 15.300,13.500 C23.400,13.500 23.400,13.500 23.400,13.500 L23.400,17.100 zM52.200,28.800 C52.200,29.297 51.797,29.700 51.300,29.700 C37.832,29.700 37.832,29.700 37.832,29.700 C37.068,29.700 36.316,29.895 35.647,30.266 C29.700,33.570 29.700,33.570 29.700,33.570 C29.700,33.570 29.700,31.500 29.700,31.500 C29.700,30.506 28.894,29.700 27.900,29.700 C26.100,29.700 26.100,29.700 26.100,29.700 C25.603,29.700 25.200,29.297 25.200,28.800 C25.200,8.100 25.200,8.100 25.200,8.100 C25.200,7.603 25.603,7.200 26.100,7.200 C51.300,7.200 51.300,7.200 51.300,7.200 C51.797,7.200 52.200,7.603 52.200,8.100 C52.200,28.800 52.200,28.800 52.200,28.800 zM45.151,20.655 C45.054,20.508 45.001,20.336 45.000,20.160 C45.000,17.100 45.000,17.100 45.000,17.100 C44.997,14.962 43.494,13.121 41.400,12.690 C41.400,11.700 41.400,11.700 41.400,11.700 C41.400,10.209 40.191,9.000 38.700,9.000 C37.209,9.000 36.000,10.209 36.000,11.700 C36.000,12.690 36.000,12.690 36.000,12.690 C33.906,13.121 32.403,14.962 32.400,17.100 C32.400,20.160 32.400,20.160 32.400,20.160 C32.400,20.337 32.347,20.511 32.249,20.659 C30.751,22.909 30.751,22.909 30.751,22.909 C30.571,23.184 30.557,23.537 30.713,23.827 C30.869,24.117 31.171,24.298 31.500,24.300 C35.100,24.300 35.100,24.300 35.100,24.300 C35.100,26.288 36.712,27.900 38.700,27.900 C40.688,27.900 42.300,26.288 42.300,24.300 C45.900,24.300 45.900,24.300 45.900,24.300 C46.232,24.300 46.537,24.117 46.694,23.825 C46.850,23.532 46.833,23.177 46.649,22.901 C45.151,20.655 45.151,20.655 45.151,20.655 zM37.800,11.700 C37.800,11.203 38.203,10.800 38.700,10.800 C39.197,10.800 39.600,11.203 39.600,11.700 C39.600,12.600 39.600,12.600 39.600,12.600 L37.800,12.600 C37.800,12.600 37.800,11.700 37.800,11.700 zM36.900,24.300 C40.500,24.300 40.500,24.300 40.500,24.300 C40.500,25.294 39.694,26.100 38.700,26.100 C37.706,26.100 36.900,25.294 36.900,24.300 zM41.400,22.500 L33.181,22.500 C33.181,22.500 33.746,21.652 33.746,21.652 C34.042,21.211 34.200,20.691 34.200,20.160 C34.200,17.100 34.200,17.100 34.200,17.100 C34.200,15.609 35.409,14.400 36.900,14.400 C40.500,14.400 40.500,14.400 40.500,14.400 C41.991,14.400 43.200,15.609 43.200,17.100 C43.200,20.160 43.200,20.160 43.200,20.160 C43.199,20.693 43.355,21.214 43.650,21.658 C44.215,22.504 44.215,22.504 44.215,22.504 L41.400,22.500 z" fill="#4fbe93" />
</svg>
